<mxfile host="app.diagrams.net" modified="2021-06-07T11:58:32.840Z" agent="5.0 (Windows NT 10.0; Win64; x64) AppleWebKit/537.36 (KHTML, like Gecko) Chrome/91.0.4472.77 Safari/537.36" etag="QafuYe-kyF5uZnvBCXT_" version="14.7.6" type="github">
  <diagram id="yXa4bOZShTcNz8GaYiva" name="Page-1">
    <mxGraphModel dx="838" dy="595" grid="1" gridSize="10" guides="1" tooltips="1" connect="1" arrows="1" fold="1" page="1" pageScale="1" pageWidth="850" pageHeight="1100" math="0" shadow="0">
      <root>
        <mxCell id="0" />
        <mxCell id="1" parent="0" />
        <mxCell id="cFWJ1XPD0mTC4XtqGad4-12" value="云商商户优惠券列表查询" style="swimlane;html=1;childLayout=stackLayout;resizeParent=1;resizeParentMax=0;horizontal=1;startSize=20;horizontalStack=0;" vertex="1" parent="1">
          <mxGeometry x="150" y="50" width="590" height="840" as="geometry" />
        </mxCell>
        <mxCell id="cFWJ1XPD0mTC4XtqGad4-13" value="APP" style="swimlane;html=1;startSize=20;horizontal=0;" vertex="1" parent="cFWJ1XPD0mTC4XtqGad4-12">
          <mxGeometry y="20" width="590" height="270" as="geometry" />
        </mxCell>
        <mxCell id="cFWJ1XPD0mTC4XtqGad4-19" value="开始" style="ellipse;whiteSpace=wrap;html=1;aspect=fixed;" vertex="1" parent="cFWJ1XPD0mTC4XtqGad4-13">
          <mxGeometry x="40" y="40" width="60" height="60" as="geometry" />
        </mxCell>
        <mxCell id="cFWJ1XPD0mTC4XtqGad4-22" value="上送特惠商户ID，用户ID和渠道信息platform" style="whiteSpace=wrap;html=1;" vertex="1" parent="cFWJ1XPD0mTC4XtqGad4-13">
          <mxGeometry x="165" y="161" width="145" height="60" as="geometry" />
        </mxCell>
        <mxCell id="cFWJ1XPD0mTC4XtqGad4-30" value="结束" style="ellipse;whiteSpace=wrap;html=1;aspect=fixed;" vertex="1" parent="cFWJ1XPD0mTC4XtqGad4-13">
          <mxGeometry x="390" y="120" width="70" height="70" as="geometry" />
        </mxCell>
        <mxCell id="cFWJ1XPD0mTC4XtqGad4-31" style="edgeStyle=orthogonalEdgeStyle;rounded=0;orthogonalLoop=1;jettySize=auto;html=1;exitX=0.5;exitY=1;exitDx=0;exitDy=0;" edge="1" parent="cFWJ1XPD0mTC4XtqGad4-13" source="cFWJ1XPD0mTC4XtqGad4-30" target="cFWJ1XPD0mTC4XtqGad4-30">
          <mxGeometry relative="1" as="geometry" />
        </mxCell>
        <mxCell id="cFWJ1XPD0mTC4XtqGad4-16" value="云商后端" style="swimlane;html=1;startSize=20;horizontal=0;" vertex="1" parent="cFWJ1XPD0mTC4XtqGad4-12">
          <mxGeometry y="290" width="590" height="350" as="geometry" />
        </mxCell>
        <mxCell id="cFWJ1XPD0mTC4XtqGad4-24" value="查询接口&lt;span style=&quot;color: rgb(6 , 125 , 23) ; background-color: rgb(255 , 255 , 255) ; font-family: &amp;#34;jetbrains mono&amp;#34; , monospace ; font-size: 9.8pt&quot;&gt;svc_cldMctCouponListQry&lt;/span&gt;" style="whiteSpace=wrap;html=1;" vertex="1" parent="cFWJ1XPD0mTC4XtqGad4-16">
          <mxGeometry x="138" y="29" width="200" height="60" as="geometry" />
        </mxCell>
        <mxCell id="cFWJ1XPD0mTC4XtqGad4-26" value="是否收单商户？" style="rhombus;whiteSpace=wrap;html=1;" vertex="1" parent="cFWJ1XPD0mTC4XtqGad4-16">
          <mxGeometry x="183" y="117" width="110" height="80" as="geometry" />
        </mxCell>
        <mxCell id="cFWJ1XPD0mTC4XtqGad4-27" value="" style="edgeStyle=orthogonalEdgeStyle;rounded=0;orthogonalLoop=1;jettySize=auto;html=1;" edge="1" parent="cFWJ1XPD0mTC4XtqGad4-16" source="cFWJ1XPD0mTC4XtqGad4-24" target="cFWJ1XPD0mTC4XtqGad4-26">
          <mxGeometry relative="1" as="geometry" />
        </mxCell>
        <mxCell id="cFWJ1XPD0mTC4XtqGad4-35" value="非收单商户" style="text;html=1;strokeColor=none;fillColor=none;align=center;verticalAlign=middle;whiteSpace=wrap;rounded=0;" vertex="1" parent="cFWJ1XPD0mTC4XtqGad4-16">
          <mxGeometry x="355" y="133" width="70" height="20" as="geometry" />
        </mxCell>
        <mxCell id="cFWJ1XPD0mTC4XtqGad4-37" value="是权益商户" style="text;html=1;strokeColor=none;fillColor=none;align=center;verticalAlign=middle;whiteSpace=wrap;rounded=0;" vertex="1" parent="cFWJ1XPD0mTC4XtqGad4-16">
          <mxGeometry x="360" y="240" width="62" height="20" as="geometry" />
        </mxCell>
        <mxCell id="cFWJ1XPD0mTC4XtqGad4-25" value="" style="edgeStyle=orthogonalEdgeStyle;rounded=0;orthogonalLoop=1;jettySize=auto;html=1;" edge="1" parent="cFWJ1XPD0mTC4XtqGad4-12" source="cFWJ1XPD0mTC4XtqGad4-22" target="cFWJ1XPD0mTC4XtqGad4-24">
          <mxGeometry relative="1" as="geometry" />
        </mxCell>
        <mxCell id="cFWJ1XPD0mTC4XtqGad4-32" style="edgeStyle=orthogonalEdgeStyle;rounded=0;orthogonalLoop=1;jettySize=auto;html=1;entryX=0.5;entryY=1;entryDx=0;entryDy=0;" edge="1" parent="cFWJ1XPD0mTC4XtqGad4-12" source="cFWJ1XPD0mTC4XtqGad4-26" target="cFWJ1XPD0mTC4XtqGad4-30">
          <mxGeometry relative="1" as="geometry" />
        </mxCell>
        <mxCell id="cFWJ1XPD0mTC4XtqGad4-14" value="云商数据库" style="swimlane;html=1;startSize=20;horizontal=0;" vertex="1" parent="cFWJ1XPD0mTC4XtqGad4-12">
          <mxGeometry y="640" width="590" height="200" as="geometry" />
        </mxCell>
        <mxCell id="cFWJ1XPD0mTC4XtqGad4-38" value="" style="whiteSpace=wrap;html=1;" vertex="1" parent="cFWJ1XPD0mTC4XtqGad4-14">
          <mxGeometry x="183" y="-40" width="120" height="60" as="geometry" />
        </mxCell>
        <mxCell id="cFWJ1XPD0mTC4XtqGad4-23" value="" style="edgeStyle=orthogonalEdgeStyle;rounded=0;orthogonalLoop=1;jettySize=auto;html=1;" edge="1" parent="1" source="cFWJ1XPD0mTC4XtqGad4-20" target="cFWJ1XPD0mTC4XtqGad4-22">
          <mxGeometry relative="1" as="geometry" />
        </mxCell>
        <mxCell id="cFWJ1XPD0mTC4XtqGad4-20" value="用户进入APP或小程序的商户页面查看优惠券" style="ellipse;whiteSpace=wrap;html=1;" vertex="1" parent="1">
          <mxGeometry x="312" y="90" width="150" height="100" as="geometry" />
        </mxCell>
        <mxCell id="cFWJ1XPD0mTC4XtqGad4-21" value="" style="edgeStyle=orthogonalEdgeStyle;rounded=0;orthogonalLoop=1;jettySize=auto;html=1;" edge="1" parent="1" source="cFWJ1XPD0mTC4XtqGad4-19" target="cFWJ1XPD0mTC4XtqGad4-20">
          <mxGeometry relative="1" as="geometry" />
        </mxCell>
        <mxCell id="cFWJ1XPD0mTC4XtqGad4-36" style="edgeStyle=orthogonalEdgeStyle;rounded=0;orthogonalLoop=1;jettySize=auto;html=1;entryX=0.5;entryY=1;entryDx=0;entryDy=0;" edge="1" parent="1" source="cFWJ1XPD0mTC4XtqGad4-28" target="cFWJ1XPD0mTC4XtqGad4-30">
          <mxGeometry relative="1" as="geometry" />
        </mxCell>
        <mxCell id="cFWJ1XPD0mTC4XtqGad4-39" value="" style="edgeStyle=orthogonalEdgeStyle;rounded=0;orthogonalLoop=1;jettySize=auto;html=1;" edge="1" parent="1" source="cFWJ1XPD0mTC4XtqGad4-28" target="cFWJ1XPD0mTC4XtqGad4-38">
          <mxGeometry relative="1" as="geometry" />
        </mxCell>
        <mxCell id="cFWJ1XPD0mTC4XtqGad4-28" value="是否权益商户？" style="rhombus;whiteSpace=wrap;html=1;" vertex="1" parent="1">
          <mxGeometry x="329" y="564" width="118" height="80" as="geometry" />
        </mxCell>
        <mxCell id="cFWJ1XPD0mTC4XtqGad4-29" value="" style="edgeStyle=orthogonalEdgeStyle;rounded=0;orthogonalLoop=1;jettySize=auto;html=1;" edge="1" parent="1" source="cFWJ1XPD0mTC4XtqGad4-26" target="cFWJ1XPD0mTC4XtqGad4-28">
          <mxGeometry relative="1" as="geometry" />
        </mxCell>
      </root>
    </mxGraphModel>
  </diagram>
</mxfile>
